<svg version="1.1" id="Layer_1" xmlns="http://www.w3.org/2000/svg" xmlns:xlink="http://www.w3.org/1999/xlink" x="0px" y="0px"
	 viewBox="0 0 1308 1435" enable-background="new 0 0 1308 1435" xml:space="preserve">
<path fill="#FFFFFF" opacity="1.000000" stroke="none" 
	d="
M947.082397,927.927795 
	C937.880798,911.862671 935.321594,893.960083 933.084045,876.049561 
	C931.902283,866.589966 931.490173,857.019775 931.093323,847.484375 
	C930.952515,844.100098 931.630249,840.608765 932.440857,837.290100 
	C932.819946,835.738037 934.403076,834.480103 935.893372,832.481323 
	C927.846680,825.332153 923.001587,815.331421 919.721191,804.385193 
	C914.299622,786.294250 912.392517,768.098267 918.024658,749.717529 
	C920.574402,741.396118 928.938293,734.294800 938.385620,735.015259 
	C944.331787,735.468750 950.266602,736.070496 956.938721,736.671692 
	C965.233093,727.176086 977.021118,720.661499 990.591797,718.161438 
	C1009.423645,714.691956 1027.869873,717.067139 1045.333496,725.127747 
	C1063.812988,733.657166 1080.823364,744.795349 1094.132935,760.108032 
	C1104.330322,771.840088 1112.765381,785.245544 1120.941406,798.547668 
	C1127.374268,809.013672 1133.517334,820.019287 1137.413940,831.585327 
	C1141.692871,844.286194 1143.075073,857.943359 1146.034790,871.112854 
	C1150.908569,892.798645 1150.936646,914.852234 1149.688477,936.737122 
	C1148.726318,953.609436 1146.226929,970.637817 1142.148926,987.034302 
	C1135.220459,1014.890991 1126.409790,1042.276123 1118.587158,1069.915283 
	C1113.902100,1086.468384 1109.277100,1103.052002 1105.265503,1119.775635 
	C1103.634888,1126.572754 1103.387451,1133.763428 1103.069092,1140.800293 
	C1102.491943,1153.553223 1101.785400,1166.340942 1102.151001,1179.084961 
	C1102.532227,1192.371460 1107.002197,1204.359253 1117.153809,1213.633789 
	C1117.601685,1214.042847 1118.147705,1214.344360 1119.337280,1215.180054 
	C1115.109131,1201.830078 1111.121704,1189.239746 1107.134155,1176.649414 
	C1107.716919,1176.263428 1108.299561,1175.877441 1108.882324,1175.491333 
	C1114.668091,1179.573486 1120.884155,1183.170166 1126.150879,1187.837891 
	C1137.423462,1197.828247 1148.143066,1208.439575 1159.203979,1218.672485 
	C1172.393555,1230.874634 1188.201050,1238.413452 1205.084106,1243.951416 
	C1207.397095,1244.709961 1209.787354,1245.244141 1212.075195,1246.067749 
	C1225.194214,1250.790039 1230.480957,1263.166870 1225.259644,1276.323242 
	C1218.493286,1293.373047 1204.929688,1301.464966 1187.772339,1303.860962 
	C1171.217285,1306.172974 1154.502808,1308.662964 1137.855835,1308.679688 
	C1114.477173,1308.703125 1091.091431,1306.546875 1069.169312,1296.971558 
	C1052.491333,1289.686890 1041.919678,1277.790649 1038.867676,1259.264893 
	C1036.232544,1243.268921 1038.462891,1227.329346 1037.968262,1211.377319 
	C1037.907227,1209.410034 1037.412354,1207.456177 1037.034058,1204.933350 
	C1006.978210,1243.277588 964.835999,1273.798462 943.390076,1272.832153 
	C942.930786,1268.840210 942.208191,1264.805298 942.048462,1260.748169 
	C941.578796,1248.822632 941.432373,1236.884644 940.973511,1224.958496 
	C940.414246,1210.425049 939.642456,1195.900024 939.005798,1181.369507 
	C938.310974,1165.508301 937.724182,1149.641968 936.971985,1133.783569 
	C936.636719,1126.715820 936.011658,1119.661865 935.464478,1111.834229 
	C934.941040,1119.247437 934.215515,1125.904419 934.044006,1132.575684 
	C933.276001,1162.434326 932.655701,1192.296875 932.002808,1222.158447 
	C931.647278,1238.421875 931.130310,1254.685303 931.070068,1270.950195 
	C931.028748,1282.113281 926.317261,1291.122559 919.279785,1299.176880 
	C906.212341,1314.132324 888.604614,1320.906616 870.119446,1325.979126 
	C865.579529,1327.225098 860.977783,1328.245605 855.929749,1329.486450 
	C858.813416,1335.318481 859.738770,1341.124390 857.120300,1347.529053 
	C853.778564,1355.702637 849.137390,1357.726929 840.525330,1357.028931 
	C828.553650,1356.058838 816.443604,1356.791382 804.392761,1356.811646 
	C803.236328,1356.813599 802.080444,1356.984009 800.923706,1356.992676 
	C755.662354,1357.334473 710.395935,1358.219238 665.141235,1357.809814 
	C633.837219,1357.526733 602.513428,1354.975830 572.763794,1344.185425 
	C543.932007,1333.727905 515.350281,1322.520874 487.016968,1310.778564 
	C475.826843,1306.140991 466.261444,1298.261719 459.090851,1288.197266 
	C449.519806,1274.763550 448.553619,1259.725830 452.412933,1244.266602 
	C457.272461,1224.801270 467.788818,1209.022949 483.246613,1195.993774 
	C500.297180,1181.621948 520.127991,1172.962158 540.502991,1164.964233 
	C570.138123,1153.331299 600.722717,1144.008911 628.969421,1128.980713 
	C640.843994,1122.662964 652.108215,1115.306274 661.567627,1105.710693 
	C666.458069,1100.749756 669.856201,1094.350098 674.506531,1089.113647 
	C684.872131,1077.441284 698.295593,1070.421509 712.693115,1064.947510 
	C726.956238,1059.524536 741.357239,1054.363525 755.245422,1048.086792 
	C766.497986,1043.001465 776.865112,1035.977905 788.039917,1030.691162 
	C794.653137,1027.562500 802.072327,1026.137573 809.559937,1024.676514 
	C805.068237,1040.369507 795.638428,1052.818604 787.688660,1066.687012 
	C787.321777,1067.612671 787.268066,1068.062744 787.214355,1068.512939 
	C787.687317,1068.246582 788.160278,1067.980225 788.633240,1067.713867 
	C799.108093,1058.231812 807.739136,1047.448120 812.537415,1033.943970 
	C815.426147,1025.813721 821.651489,1020.477783 828.139648,1015.349731 
	C839.918579,1006.039917 851.285706,995.944946 865.443787,990.419678 
	C873.210205,987.388916 881.610352,985.890076 889.816956,984.130615 
	C892.557800,983.542969 894.203674,985.301697 894.052124,988.571045 
	C893.635864,997.549438 896.532227,1005.704163 900.996582,1013.424622 
	C900.330688,1009.271790 899.972961,1005.040344 898.937805,1000.981628 
	C896.430725,991.151245 899.555237,982.264038 903.241089,973.515198 
	C908.037415,962.130249 912.607666,950.597839 918.287598,939.654297 
	C922.676392,931.198547 928.622681,923.551086 934.358093,914.810425 
	C938.710510,919.908813 942.277283,924.086853 946.283142,928.698608 
	C947.088745,929.238586 947.455200,929.344727 947.821777,929.450928 
	C947.575317,928.943176 947.328857,928.435486 947.082397,927.927795 
M648.190125,1223.009399 
	C647.746704,1223.531128 647.303284,1224.052856 646.859802,1224.574585 
	C647.805115,1224.267700 648.750366,1223.960815 650.251282,1223.228760 
	C650.813538,1222.898560 651.375854,1222.568359 651.938110,1222.238159 
	C651.817322,1221.979492 651.696472,1221.720703 651.575684,1221.461914 
	C650.693237,1221.947021 649.810791,1222.432129 648.190125,1223.009399 
M687.823242,1201.992554 
	C694.269653,1199.317993 700.656677,1196.487671 707.174438,1194.000122 
	C722.417847,1188.182495 737.449463,1181.603394 754.445679,1182.937866 
	C767.494446,1183.962402 769.478516,1185.696777 765.023438,1197.476318 
	C762.703369,1203.610718 763.759033,1206.343262 769.855530,1209.334473 
	C778.928467,1213.785645 788.470398,1215.216064 798.496826,1213.274902 
	C803.735901,1212.260620 808.555542,1213.076782 812.618530,1217.075562 
	C820.393433,1224.727539 822.221252,1236.292969 817.530396,1248.061523 
	C816.494019,1250.661499 816.180786,1253.549683 815.534546,1256.305176 
	C817.527649,1252.958618 818.707092,1249.423340 820.450928,1246.192505 
	C823.264404,1240.980103 824.683044,1235.631348 822.965210,1229.847168 
	C820.480164,1221.479858 814.190308,1212.367188 805.440674,1211.101562 
	C800.074524,1210.325439 794.570312,1210.552124 789.170227,1209.950684 
	C780.936707,1209.033447 772.919312,1207.266724 765.859131,1202.229004 
	C767.530701,1198.958008 768.900696,1195.802979 770.680176,1192.898560 
	C773.894653,1187.652100 773.806946,1186.704346 768.437561,1183.865234 
	C760.402771,1179.616821 752.002625,1178.822998 742.908264,1179.839233 
	C722.098572,1182.164551 704.142029,1191.481079 685.759277,1201.762939 
	C682.244324,1203.519165 678.729431,1205.275269 675.214478,1207.031372 
	C675.429077,1207.424316 675.643677,1207.817383 675.858215,1208.210327 
	C679.596252,1206.167603 683.334229,1204.125000 687.823242,1201.992554 
M885.000000,1171.500000 
	C885.000000,1155.570435 885.000000,1139.640869 885.000000,1124.749146 
	C884.920654,1124.986084 884.164490,1126.314575 884.062683,1127.691406 
	C882.981995,1142.297485 882.025574,1156.912476 880.992493,1171.522095 
	C880.354614,1180.543335 879.793640,1189.573730 878.928528,1198.574219 
	C877.753723,1210.796631 876.418152,1223.005737 874.968384,1235.198730 
	C873.796204,1245.057495 871.092102,1254.306885 863.858398,1261.718262 
	C860.905762,1264.743408 858.386658,1268.191650 855.670227,1271.447388 
	C856.963501,1271.761719 857.741394,1271.561890 858.325684,1271.111084 
	C862.982117,1267.517944 867.591309,1263.863647 872.235107,1260.254150 
	C880.989197,1253.449829 885.677429,1245.226196 885.218201,1233.424561 
	C884.429077,1213.144287 885.000000,1192.811035 885.000000,1171.500000 
M1046.546387,749.034790 
	C1041.479858,742.236877 1035.245605,737.905396 1026.226318,739.214905 
	C1027.144287,750.987244 1039.656372,763.286377 1051.520630,760.277161 
	C1050.010132,756.656616 1048.535645,753.122375 1046.546387,749.034790 
M829.007935,1274.491455 
	C833.490234,1277.991821 835.271118,1282.448853 833.496704,1287.973389 
	C832.510498,1291.043579 831.005737,1293.953003 830.098877,1297.041870 
	C828.693237,1301.829346 829.936279,1304.873779 833.740967,1307.249023 
	C833.995178,1305.864258 834.342163,1304.438232 834.508240,1302.991455 
	C835.363770,1295.536865 836.510681,1288.093872 836.883118,1280.613281 
	C837.144226,1275.369995 832.824158,1272.312134 829.007935,1274.491455 
M962.491821,740.101318 
	C961.838196,740.101318 961.184509,740.101318 960.457214,740.101318 
	C966.229126,750.232605 982.227966,753.656738 991.991089,753.479492 
	C982.005798,749.021118 972.535217,744.792480 962.491821,740.101318 
M605.543518,1245.987549 
	C605.046814,1246.016235 604.547607,1246.024658 604.054993,1246.086182 
	C603.917419,1246.103394 603.782593,1246.261719 603.678406,1246.382690 
	C603.618591,1246.452026 603.622864,1246.576538 603.470947,1247.192993 
	C620.231567,1244.494873 634.038391,1236.692749 646.129944,1225.481812 
	C632.862488,1232.292969 619.595032,1239.104248 605.543518,1245.987549 
M950.981140,845.476807 
	C949.536560,844.164368 948.091980,842.851990 946.647400,841.539612 
	C946.393311,841.811707 946.139282,842.083801 945.885254,842.355896 
	C950.226868,848.956360 954.568542,855.556824 958.910156,862.157349 
	C959.342590,855.268921 955.553162,850.568604 950.981140,845.476807 
M844.971924,1311.496948 
	C844.355774,1311.799072 843.739624,1312.101196 843.123535,1312.403442 
	C845.363403,1315.681519 847.603333,1318.959717 849.843262,1322.237793 
	C850.265747,1321.993530 850.688171,1321.749268 851.110596,1321.505005 
	C849.242188,1318.340210 847.373718,1315.175293 844.971924,1311.496948 
M654.733948,1220.735107 
	C655.056824,1220.369019 655.384766,1220.006958 655.686829,1219.624390 
	C655.701477,1219.605835 655.488220,1219.407471 655.120422,1219.013794 
	C654.157288,1219.553345 653.118591,1220.135254 652.079834,1220.717163 
	C652.172852,1220.930176 652.265808,1221.143188 652.358765,1221.356323 
	C652.912537,1221.232544 653.466309,1221.108765 654.733948,1220.735107 
M941.583313,838.866089 
	C942.117432,838.713074 942.651550,838.560120 943.185669,838.407104 
	C942.819702,837.976868 942.453735,837.546631 942.087830,837.116333 
	C941.716064,837.500671 941.344299,837.885010 941.583313,838.866089 
M939.826477,835.679321 
	C939.011475,835.377563 938.196411,835.075745 937.381409,834.773987 
	C937.311157,835.019592 937.240967,835.265259 937.170715,835.510864 
	C937.911194,835.808899 938.651733,836.106934 939.826477,835.679321 
M853.895020,1274.278687 
	C853.460083,1274.216675 853.025146,1274.154663 852.590271,1274.092651 
	C852.885132,1274.346680 853.179993,1274.600708 853.895020,1274.278687 
z"/>
<path fill="#FFFFFF" opacity="1.000000" stroke="none" 
	d="
M272.001770,1004.946594 
	C266.884888,1022.382812 260.831299,1039.006714 252.120316,1054.584473 
	C244.761200,1067.744629 236.810226,1080.445190 226.218750,1091.326416 
	C222.087708,1095.570435 219.348328,1100.577026 220.024506,1106.747314 
	C221.932770,1124.160889 224.126984,1141.544556 225.891556,1158.972046 
	C228.061035,1180.398682 236.941971,1200.022705 242.155075,1220.627441 
	C242.347717,1221.388672 244.495163,1222.317261 245.515991,1222.109375 
	C265.039001,1218.131958 282.696655,1209.849365 297.538147,1196.681152 
	C309.610077,1185.970337 316.014038,1171.623047 318.998718,1155.801147 
	C319.834076,1151.372925 320.698547,1146.950439 321.616058,1142.180054 
	C325.917633,1147.256592 326.107819,1147.619629 325.955017,1160.227539 
	C325.877289,1166.643311 325.330750,1173.053467 325.677551,1179.584106 
	C330.119537,1161.331055 334.316772,1143.014038 339.070618,1124.842773 
	C344.083466,1105.681396 353.501038,1088.692017 365.461151,1072.943237 
	C379.193024,1054.861694 396.691284,1041.209717 415.523956,1029.032837 
	C419.348022,1026.560181 423.424438,1024.477783 428.825012,1021.392639 
	C427.679535,1024.164673 427.296753,1025.764160 426.443115,1027.051270 
	C419.062286,1038.179810 411.309753,1049.072754 404.229218,1060.387085 
	C395.429840,1074.447754 390.227966,1089.756470 389.975708,1106.563599 
	C389.735199,1122.583862 392.054016,1138.295044 394.826202,1154.015015 
	C396.162384,1161.592041 396.309082,1169.378784 397.001587,1177.069824 
	C397.325592,1180.668579 397.984161,1184.268799 397.949280,1187.863159 
	C397.692902,1214.295532 392.164856,1239.700073 382.342041,1264.160767 
	C374.365417,1284.024048 364.288208,1302.777344 352.250854,1320.528076 
	C345.130005,1331.028809 336.248230,1339.636597 326.299255,1347.250122 
	C315.799896,1355.285034 305.529510,1363.724243 294.422913,1370.837158 
	C275.490295,1382.962036 254.670425,1390.738770 232.540680,1395.036255 
	C211.045059,1399.210571 189.271545,1398.838501 167.697357,1397.701538 
	C142.469284,1396.371948 118.115868,1389.975952 95.898872,1377.350342 
	C76.194878,1366.152710 61.019291,1350.493652 53.549873,1328.798950 
	C48.494469,1314.115601 46.568886,1298.738159 52.151199,1283.614380 
	C53.793827,1279.164185 57.277752,1275.393555 60.197224,1270.879395 
	C56.580200,1266.258057 52.125690,1261.081177 48.244362,1255.505127 
	C38.972759,1242.185425 33.165318,1227.169312 31.286055,1211.271118 
	C29.370308,1195.064087 28.339386,1178.515625 29.304340,1162.258057 
	C30.941961,1134.667603 38.062416,1108.026978 47.461063,1082.029053 
	C56.574200,1056.820923 67.416183,1032.438599 82.976418,1010.493225 
	C92.037949,997.713379 101.837570,985.450867 111.462456,973.077942 
	C125.587570,954.920044 140.276657,937.148987 150.296814,916.210083 
	C152.746857,911.090332 155.121353,905.849304 156.698517,900.422241 
	C158.123734,895.518005 159.538742,891.216858 164.429749,890.780579 
	C151.591446,889.249390 137.897446,888.023132 124.351242,885.867859 
	C114.082993,884.234131 104.654297,880.283936 97.937897,870.795288 
	C99.418419,870.468933 100.487862,869.999634 101.539886,870.035950 
	C120.191673,870.679016 136.046494,863.326782 151.221054,853.369995 
	C174.496933,838.097412 197.970963,823.122742 221.500824,808.242981 
	C234.507385,800.017883 248.525177,800.052979 262.813324,804.398315 
	C269.800323,806.523315 276.691742,809.003296 283.753052,810.834229 
	C295.750732,813.945251 307.646759,812.821106 319.432648,809.264160 
	C328.754852,806.450745 338.144928,803.859558 347.528778,801.255981 
	C348.747986,800.917664 350.110413,801.095459 351.733887,801.018677 
	C356.419708,817.499390 346.803650,826.891724 335.665985,836.177734 
	C339.243835,834.816223 342.821716,833.454651 346.399567,832.093140 
	C346.707458,832.343750 347.015320,832.594360 347.323212,832.845032 
	C345.861145,834.750977 344.704132,837.034851 342.887421,838.501404 
	C331.428345,847.751953 319.696991,856.667175 308.297028,865.988464 
	C293.371094,878.192688 280.840057,892.198792 279.109558,912.540466 
	C278.319122,921.831787 279.000854,931.246338 278.970245,940.604858 
	C278.922180,955.309265 279.895264,970.074402 276.694153,984.608398 
	C275.227051,991.269348 273.578033,997.890259 272.001770,1004.946594 
M204.115372,1217.987549 
	C194.964783,1219.623779 186.149261,1224.051636 176.438583,1221.021240 
	C189.515533,1227.002686 194.575623,1226.543701 206.184845,1218.273315 
	C206.718689,1218.029053 207.252533,1217.784790 207.786362,1217.540527 
	C207.694763,1217.316528 207.603149,1217.092529 207.511551,1216.868408 
	C206.650391,1217.218018 205.789215,1217.567627 204.115372,1217.987549 
M147.174759,1139.345581 
	C143.991776,1140.322876 140.808792,1141.300171 136.965393,1142.480347 
	C146.546555,1143.015747 155.411774,1143.036621 164.140060,1144.140503 
	C171.923325,1145.124634 178.902161,1148.575439 183.155655,1155.632324 
	C186.641541,1161.415649 189.608353,1167.511963 192.805222,1173.469482 
	C186.438034,1150.749512 192.954620,1127.604614 190.342392,1104.685547 
	C184.895187,1119.968018 186.287262,1136.053833 185.910614,1152.802124 
	C173.999466,1143.983154 162.300476,1137.767578 147.174759,1139.345581 
M233.564117,1224.108276 
	C234.890854,1223.977173 236.217590,1223.845947 237.544327,1223.714844 
	C234.726776,1222.013550 231.866760,1220.785889 228.929474,1220.559326 
	C223.122208,1220.111206 223.109894,1216.306641 224.341919,1212.552734 
	C226.059402,1207.319458 224.444397,1203.566528 220.905655,1199.964355 
	C218.898941,1209.129639 216.960419,1217.983521 214.944031,1227.192993 
	C220.650833,1226.370605 226.765274,1225.489624 233.564117,1224.108276 
M265.690521,824.058105 
	C262.640503,828.713501 259.590515,833.368896 256.540527,838.024292 
	C265.798370,835.004028 273.423492,827.058533 273.440735,820.294250 
	C270.864746,821.625793 268.651215,822.770020 265.690521,824.058105 
M167.444397,1218.873413 
	C168.094208,1218.873413 168.744019,1218.873413 169.642151,1218.873413 
	C165.562073,1214.773926 158.601624,1215.057983 155.242020,1208.845459 
	C147.639633,1208.845459 139.078995,1208.845459 130.518356,1208.845459 
	C133.774460,1209.982666 137.131409,1209.921875 140.255264,1210.745361 
	C149.176376,1213.096558 158.002686,1215.807373 167.444397,1218.873413 
M108.493752,1225.004639 
	C101.839897,1232.260864 97.007172,1240.381470 96.609680,1250.632568 
	C102.660347,1240.370117 108.711006,1230.107544 114.761665,1219.844971 
	C114.223686,1219.328125 113.685715,1218.811279 113.147736,1218.294556 
	C111.767693,1220.359985 110.387657,1222.425415 108.493752,1225.004639 
M117.175598,1218.127930 
	C117.063934,1217.796753 116.952263,1217.465698 116.840599,1217.134521 
	C116.724129,1217.545532 116.607666,1217.956665 117.175598,1218.127930 
z"/>
<path fill="#FFFFFF" opacity="1.000000" stroke="none" 
	d="
M941.336548,544.274414 
	C932.315002,550.184387 923.664795,555.997192 914.854980,561.557129 
	C906.059021,567.108398 897.103149,572.406311 888.110535,577.880249 
	C892.045044,584.837158 897.753357,590.794189 895.786987,598.943665 
	C889.161926,594.110291 882.829651,588.598328 875.671082,584.546082 
	C869.784729,581.214050 863.267700,577.829590 855.894836,580.045227 
	C853.152344,580.869324 850.544556,582.141907 847.146851,582.412231 
	C848.927673,580.101562 850.708557,577.790894 852.931213,574.906921 
	C850.346741,575.191650 848.258545,575.421753 845.177734,575.761169 
	C851.192932,568.507019 859.497498,568.914856 867.607971,566.316528 
	C862.168701,565.235474 857.732971,564.353821 853.333557,563.479431 
	C855.515991,559.554260 862.833496,557.247986 869.000977,558.991272 
	C874.606628,560.575806 880.094604,562.576477 886.253479,564.596802 
	C892.409485,547.961914 890.636658,530.145996 891.076111,512.582703 
	C891.516785,512.473633 891.957397,512.364563 892.398010,512.255554 
	C894.122681,516.972229 895.847351,521.688965 897.572021,526.405640 
	C897.037537,517.837219 895.340027,509.735931 890.212524,502.465881 
	C882.768372,491.911133 873.711060,483.529907 861.491211,478.878815 
	C854.186218,476.098328 847.048096,477.281586 840.308044,480.393463 
	C830.988708,484.696198 821.914795,489.530426 811.380554,494.817169 
	C812.510376,491.960541 813.151184,490.340271 813.792053,488.720001 
	C813.527527,488.471069 813.263000,488.222137 812.998413,487.973236 
	C810.871826,490.280609 808.553040,492.442993 806.672058,494.935638 
	C804.741394,497.494019 803.238586,500.375244 801.547852,503.116241 
	C795.730591,499.128662 794.020508,493.860443 797.033997,488.070099 
	C801.565552,479.362671 804.538208,470.534485 804.216919,460.412598 
	C803.998962,453.543945 808.988464,448.126831 813.825684,443.923126 
	C826.438904,432.961792 839.275513,422.185211 852.716248,412.275177 
	C860.876770,406.258362 870.325195,401.988312 879.811218,396.582367 
	C874.456421,398.112976 869.609436,399.498444 863.922363,401.123993 
	C864.324707,395.795197 864.528748,390.812714 865.115356,385.875671 
	C865.924377,379.066681 867.267151,372.315704 867.927246,365.495941 
	C868.578979,358.763062 868.673889,351.975861 868.998352,345.211792 
	C869.785095,328.810913 867.032959,312.938812 862.716309,297.142059 
	C858.625244,282.171265 859.727173,268.001007 873.131653,257.402771 
	C878.899048,252.842697 884.893188,248.570053 890.682678,244.036957 
	C897.123596,238.993759 903.773010,234.152771 909.759888,228.606476 
	C924.354553,215.085632 938.697815,201.289597 952.995361,187.452530 
	C969.123657,171.843781 985.470276,156.432648 1000.999451,140.242554 
	C1011.949280,128.826706 1022.578064,116.797684 1027.828003,101.371574 
	C1031.963745,89.219498 1034.702393,76.799194 1032.089722,63.810947 
	C1031.802612,62.384075 1032.050903,60.849533 1032.050903,58.949066 
	C1044.923340,63.286739 1051.934326,72.559135 1055.972778,84.503525 
	C1060.815552,98.827141 1060.508789,113.474823 1059.165771,128.358826 
	C1057.299805,149.040176 1051.291382,168.578949 1043.832886,187.690048 
	C1039.588135,198.566528 1034.167969,209.023087 1028.666138,219.343063 
	C1027.276245,221.950134 1023.543945,223.308472 1021.285583,224.951355 
	C1031.914917,224.328964 1043.258179,223.558212 1054.612671,223.025314 
	C1070.968506,222.257690 1087.383423,222.258179 1103.681885,220.864639 
	C1133.292358,218.332932 1162.771240,214.795425 1191.631836,207.094269 
	C1215.768066,200.653732 1238.360962,191.087082 1258.775024,176.612671 
	C1262.239258,174.156357 1265.441772,171.332291 1268.798096,168.720337 
	C1269.250854,168.367966 1269.896484,168.263641 1270.669312,167.959213 
	C1272.845703,188.293427 1266.954468,205.778946 1254.347778,221.126358 
	C1233.067383,247.033264 1205.000000,263.261383 1174.686157,275.966858 
	C1158.827393,282.613739 1142.514648,288.177460 1126.416260,294.254944 
	C1125.682129,294.532135 1125.039551,295.051880 1124.330933,295.472534 
	C1127.983765,297.454285 1131.622803,299.428558 1136.310669,301.971924 
	C1112.225952,310.506104 1089.222900,317.005493 1064.266479,315.656494 
	C1062.147705,369.158600 1036.494995,413.139587 1003.783264,454.072540 
	C1004.062073,454.414398 1004.340820,454.756226 1004.619629,455.098053 
	C1012.340881,454.098785 1020.062195,453.099518 1029.284424,451.905975 
	C1026.276489,456.508026 1023.955139,460.059723 1021.420959,463.936951 
	C1050.577148,464.946320 1077.827759,457.838531 1104.785400,446.923553 
	C1105.204712,451.844543 1105.251343,456.597504 1106.089111,461.206696 
	C1107.256226,467.628540 1112.930786,470.506226 1119.190430,468.389709 
	C1121.959839,467.453369 1124.740967,466.521057 1127.574829,465.822235 
	C1128.623291,465.563660 1129.838135,465.979858 1131.083984,467.239899 
	C1127.187500,469.801056 1123.283203,472.350189 1119.396484,474.925995 
	C1113.033325,479.142853 1112.331665,481.584137 1115.810181,488.374359 
	C1121.058350,498.619080 1120.507568,496.155670 1112.364990,503.876068 
	C1106.648438,509.296234 1099.669434,513.385010 1092.982178,518.266907 
	C1095.360229,520.235901 1097.861084,522.306580 1101.552368,525.362976 
	C1095.210449,526.778870 1090.306519,528.564209 1085.316162,528.852722 
	C1072.579102,529.588745 1059.718506,530.735535 1047.063354,529.738953 
	C1028.229248,528.255615 1009.775940,523.982910 991.942749,517.462280 
	C987.067017,515.679504 982.085938,514.121521 977.375000,511.973907 
	C974.257507,510.552704 972.703308,511.266602 970.946411,513.986023 
	C963.208191,525.963562 953.624207,536.200012 941.336548,544.274414 
M934.000000,316.316467 
	C933.882629,298.833496 930.112244,282.008942 924.841064,265.453461 
	C922.798950,259.039917 923.750183,255.967102 929.033081,252.526535 
	C931.804810,250.721359 934.715027,249.128876 937.562744,247.440353 
	C935.847961,247.335495 934.193359,247.446869 932.796753,248.105453 
	C922.420349,252.998596 918.377014,256.189728 920.110779,267.576508 
	C921.426208,276.216125 923.962341,284.662476 925.590881,293.263824 
	C927.284729,302.210663 929.889221,311.275696 929.654968,320.225189 
	C929.345581,332.049652 927.355469,343.963776 924.817688,355.561401 
	C921.845886,369.142181 918.994263,383.019928 909.479980,394.122040 
	C909.102295,394.562836 909.301514,395.498108 909.231934,396.202972 
	C914.133057,392.207947 918.676086,388.008270 921.887817,382.961334 
	C934.735657,362.772095 936.062500,340.291992 934.000000,316.316467 
M816.447815,461.040100 
	C815.399292,463.007324 814.350769,464.974579 813.302246,466.941803 
	C813.678894,467.151398 814.055542,467.361023 814.432190,467.570618 
	C816.611633,464.942871 818.791077,462.315125 820.970520,459.687347 
	C820.667786,459.350372 820.365051,459.013367 820.062317,458.676392 
	C819.035461,459.291595 818.008545,459.906799 816.447815,461.040100 
M907.894958,398.278656 
	C907.460022,398.216675 907.025085,398.154694 906.590149,398.092743 
	C906.885010,398.346802 907.179932,398.600891 907.894958,398.278656 
z"/>
<path fill="#FFFFFF" opacity="1.000000" stroke="none" 
	d="
M201.994690,669.922913 
	C198.992096,679.425598 195.782715,688.438538 193.092758,697.603882 
	C191.866425,701.782166 191.558823,706.248352 191.020981,710.606873 
	C189.658249,721.650208 188.142960,732.684143 187.182938,743.764648 
	C186.412720,752.654480 186.520370,761.616943 185.944809,770.528259 
	C185.576508,776.230530 185.205597,782.027222 183.867538,787.546814 
	C182.416931,793.530701 183.362381,798.795593 185.986374,804.083252 
	C186.957825,806.040771 187.627258,808.148193 188.000702,809.091614 
	C176.231766,814.737732 165.220154,820.020508 153.663559,825.564758 
	C154.106842,819.737488 155.039612,813.854553 154.886398,808.000183 
	C154.654327,799.133484 152.927933,790.267029 153.163162,781.435730 
	C153.575363,765.961548 155.027649,750.516296 155.975464,735.054688 
	C156.399109,728.143982 156.511993,721.211121 157.079208,714.314148 
	C157.244598,712.303223 157.923553,709.660400 159.341019,708.545044 
	C164.997162,704.094666 162.792603,700.230774 158.808182,696.211304 
	C161.333893,692.817505 163.859055,689.629700 166.120148,686.264465 
	C166.821930,685.220032 167.308167,683.580994 167.042770,682.406311 
	C164.477829,671.052856 166.819641,660.311890 170.995880,649.837158 
	C175.844376,637.676270 179.678207,624.872131 186.289490,613.734375 
	C190.914368,605.942993 193.986755,597.967102 197.446884,589.799438 
	C204.039886,574.236694 212.179886,559.279602 220.480637,544.522766 
	C222.721603,540.538940 227.682007,537.938904 231.705948,535.154297 
	C234.474625,533.238281 237.780914,532.099121 241.187149,530.447876 
	C238.531052,523.301025 240.326904,517.792664 245.779556,512.289856 
	C250.127319,507.902191 252.343857,501.482574 256.005096,496.318542 
	C264.177765,484.791290 274.157257,474.705383 286.337677,467.808685 
	C291.469421,464.903046 294.592102,462.339050 297.988556,457.368958 
	C302.574158,450.658722 310.738373,446.343140 317.511749,441.190247 
	C329.199249,432.298615 340.786102,423.244781 352.880341,414.936066 
	C356.482391,412.461487 361.608704,411.389801 366.090668,411.234497 
	C370.850494,411.069580 373.813934,409.714813 375.920837,405.504364 
	C379.215088,398.921234 384.179993,394.036682 391.028595,390.934937 
	C400.089355,386.831238 408.955048,382.298553 417.949371,378.044983 
	C419.836517,377.152557 421.926239,376.694275 423.908752,375.996643 
	C428.600647,374.345581 433.227936,372.485199 437.982483,371.042938 
	C449.294281,367.611572 460.597534,364.116241 472.030823,361.131561 
	C482.871765,358.301514 493.838959,355.915741 504.823914,353.697449 
	C508.660706,352.922668 512.930298,352.338867 516.626404,353.228821 
	C524.173401,355.046021 530.625854,352.884460 537.548096,350.403168 
	C544.050659,348.072388 551.144043,347.380493 557.986694,346.013824 
	C560.065613,345.598572 562.220703,344.889618 564.261536,345.096985 
	C568.756775,345.553741 573.178162,346.732330 577.673035,347.199982 
	C582.588623,347.711395 587.555908,347.709137 592.494629,348.025604 
	C594.084473,348.127502 596.148987,347.988403 597.143494,348.895050 
	C600.354980,351.822906 603.564392,351.823669 607.114624,349.938812 
	C618.170471,344.069305 629.617676,345.611206 641.146729,348.051636 
	C650.843750,350.104248 660.598267,351.892639 670.268250,354.061249 
	C674.036804,354.906372 677.648071,356.459106 681.322571,357.714294 
	C683.468689,358.447388 685.796387,360.212006 687.702515,359.827545 
	C698.837341,357.582001 708.499878,361.920898 718.242126,365.993042 
	C740.425964,375.265717 762.715210,384.308838 784.656921,394.126251 
	C792.145264,397.476776 798.597351,403.078430 805.759949,407.243927 
	C810.765625,410.154999 816.174133,412.373413 821.845520,415.115295 
	C822.800049,420.349335 821.242554,424.255768 815.380432,427.640778 
	C809.887817,430.812439 805.778748,436.380096 800.759766,441.181335 
	C789.127380,429.903503 773.958984,425.041473 759.375305,419.080750 
	C741.034363,411.584320 722.920532,403.418732 704.219971,396.955780 
	C691.864075,392.685547 678.702820,390.625977 665.800964,388.091766 
	C655.244629,386.018250 644.552917,384.606506 633.894531,383.088654 
	C625.632019,381.911987 617.349304,380.776703 609.037598,380.070160 
	C598.200867,379.148926 587.304260,377.899780 576.474670,378.213989 
	C565.389709,378.535614 554.276428,380.112701 543.314636,381.963745 
	C523.419800,385.323334 503.601257,389.157715 483.803009,393.058472 
	C471.365936,395.508911 459.018127,398.416077 446.647095,401.193268 
	C445.261108,401.504425 443.796539,402.060822 442.687286,402.916809 
	C432.266846,410.958008 420.535858,416.617126 408.552124,421.802551 
	C387.002472,431.127167 368.099426,444.793182 348.661621,457.669006 
	C328.191345,471.228699 311.673279,489.018646 294.425903,506.078949 
	C287.273438,513.153809 280.482361,520.625549 272.991425,527.317261 
	C266.369385,533.232788 263.316528,541.223450 258.897980,548.440552 
	C248.273560,565.794128 237.563400,583.095947 227.046005,600.514099 
	C222.460403,608.108582 216.779938,615.219116 216.773132,624.921509 
	C216.771408,627.380859 214.207687,629.735718 213.354843,632.315063 
	C209.794617,643.082397 206.419525,653.911316 203.026886,664.733398 
	C202.543167,666.276428 202.335464,667.905884 201.994690,669.922913 
z"/>
<path fill="#FFFFFF" opacity="1.000000" stroke="none" 
	d="
M630.228027,611.725708 
	C644.906006,623.079590 651.475708,638.689453 654.859070,655.793396 
	C656.631470,664.753784 657.510620,673.970886 657.889832,683.109558 
	C658.605225,700.351135 658.512512,717.624878 659.071228,734.875061 
	C659.320801,742.580688 660.250305,750.270203 661.035767,757.950134 
	C661.417664,761.683594 659.652710,762.629639 656.280518,763.080322 
	C645.786621,764.482666 635.341003,766.246033 624.291504,767.960144 
	C624.192871,766.385193 623.987915,764.843750 624.016663,763.306580 
	C624.323425,746.881592 624.616089,730.456055 625.021606,714.033325 
	C625.238037,705.269165 626.356384,696.469604 625.842041,687.758362 
	C625.024597,673.913086 623.032654,660.161499 615.013916,648.200073 
	C613.832703,646.438049 612.341553,644.883728 610.646729,642.808411 
	C607.219421,646.260315 604.013428,649.508362 600.786255,652.735291 
	C595.267029,658.254028 598.415405,665.020325 598.178711,671.275635 
	C598.099792,673.362244 598.950562,675.473511 598.960876,677.575562 
	C599.034180,692.568420 599.373047,707.574036 598.882812,722.551208 
	C598.485657,734.682373 596.831909,746.768005 596.190674,758.897888 
	C595.957520,763.307983 592.933289,763.467163 590.263428,763.906921 
	C581.423218,765.363098 572.526428,766.475586 562.800537,767.839233 
	C563.078186,762.128174 563.345337,756.431274 563.643127,750.735901 
	C563.685669,749.922485 563.958557,749.119507 563.985657,748.307068 
	C564.338379,737.713928 564.676392,727.120300 564.997070,716.526184 
	C565.342957,705.099854 566.080078,693.665894 565.889221,682.247925 
	C565.678650,669.649902 561.720947,657.926514 555.459412,647.004395 
	C555.049500,646.289368 554.421753,645.699280 553.800903,644.934692 
	C550.582703,647.717468 547.657959,650.326538 544.647400,652.832520 
	C538.872559,657.639587 537.221130,664.220154 537.057861,671.224976 
	C536.828857,681.048584 536.518921,690.910583 537.113037,700.703491 
	C537.997437,715.279846 539.661987,729.808411 540.950256,744.361206 
	C541.371094,749.115417 541.555481,753.891724 542.034485,758.639160 
	C542.346924,761.735718 540.695007,762.622498 538.080322,763.012024 
	C527.609375,764.572021 517.150146,766.210999 506.620636,767.830933 
	C506.620636,759.479675 506.600586,751.118958 506.637787,742.758362 
	C506.645081,741.116516 506.981995,739.475708 506.983704,737.834229 
	C507.007751,714.844604 507.100922,691.854309 506.954529,668.865662 
	C506.888123,658.436829 506.487091,648.002991 505.946228,637.586548 
	C505.537476,629.713867 504.705780,621.861511 503.981812,614.007507 
	C503.661041,610.527588 504.676086,609.092285 508.588287,608.857788 
	C515.730957,608.429626 522.822327,607.144165 530.691223,606.117615 
	C532.209473,612.406616 533.781494,618.918030 535.386963,625.568054 
	C540.326904,621.138428 545.079529,616.324463 550.399170,612.251099 
	C556.576904,607.520752 561.469604,607.381409 567.397339,612.089661 
	C574.356262,617.616943 580.727051,623.884583 587.400330,629.873718 
	C590.829285,626.219604 594.815613,621.559265 599.253174,617.377869 
	C602.563293,614.258789 606.425842,611.717224 610.096680,608.991638 
	C617.486877,603.504456 623.888672,606.283875 630.228027,611.725708 
z"/>
<path fill="#FFFFFF" opacity="1.000000" stroke="none" 
	d="
M347.000000,702.001038 
	C349.490295,662.793823 326.521851,630.096863 312.273041,617.865723 
	C312.170074,619.759277 312.081848,621.322388 312.000549,622.885864 
	C311.666138,629.316772 311.007385,635.750610 311.062439,642.178223 
	C311.223206,660.942566 311.386902,679.715088 312.097687,698.463623 
	C312.614990,712.108215 313.849854,725.733459 315.068146,739.340149 
	C315.649170,745.829163 316.980591,752.248779 317.882294,758.712341 
	C318.277344,761.544373 318.628296,764.621094 314.505432,764.950195 
	C301.890533,765.957397 289.267548,766.863098 275.774597,767.873657 
	C276.187744,762.603943 276.806274,757.430298 276.959839,752.242920 
	C277.406677,737.149475 277.657593,722.050354 278.003876,706.953918 
	C278.323395,693.023376 279.331909,679.069641 278.834015,665.169128 
	C278.192291,647.254517 276.310333,629.385681 275.064972,611.490051 
	C274.816559,607.920410 275.029114,604.318726 275.029114,600.231384 
	C277.541077,599.804260 280.997070,599.216614 285.374573,598.472290 
	C281.573517,596.396118 278.377045,594.650146 275.068085,592.842712 
	C278.455231,580.480408 281.781097,568.341675 285.270325,555.606812 
	C298.055511,561.479553 308.688080,569.708130 318.905914,578.475891 
	C329.172089,587.285217 339.185455,596.389038 348.161926,604.346436 
	C346.353485,591.367737 344.129700,575.408020 341.806549,558.735474 
	C348.536713,558.187988 355.845428,557.663147 363.139008,556.977417 
	C368.669434,556.457397 374.186859,555.781799 379.698151,555.081970 
	C383.664978,554.578308 384.066833,557.112183 383.910126,559.968750 
	C383.722015,563.396667 383.111420,566.807922 383.033813,570.234314 
	C382.627808,588.162415 382.314392,606.092651 382.003845,624.022766 
	C381.650024,644.451843 380.979889,664.883850 381.113098,685.310242 
	C381.217621,701.342407 382.170441,717.377197 383.063019,733.393188 
	C383.619263,743.373779 384.764404,753.321655 385.678467,763.659973 
	C371.723206,764.851379 357.595764,766.057495 343.542419,767.257324 
	C344.720459,745.193848 345.860229,723.847229 347.000000,702.001038 
z"/>
<path fill="#FFFFFF" opacity="1.000000" stroke="none" 
	d="
M766.966431,637.587036 
	C765.562683,643.209656 764.503296,648.483459 762.738586,653.509460 
	C759.309326,663.276367 753.722839,671.611816 744.744568,677.665039 
	C749.383484,682.840881 754.157715,687.617371 758.289490,692.896667 
	C765.958374,702.695435 770.008545,714.044250 772.085571,726.292969 
	C773.909912,737.051697 772.829224,747.577271 770.974182,758.131531 
	C770.499695,760.831177 769.584351,762.730896 766.087585,763.177063 
	C756.920593,764.346558 747.831482,766.126465 737.548645,767.859131 
	C738.076599,761.437927 738.670044,756.252930 738.899780,751.051941 
	C739.645935,734.154053 739.116943,717.372375 728.851990,702.900085 
	C724.908203,697.339783 720.251587,691.718262 712.302490,691.844238 
	C711.189697,691.861877 709.121948,693.508484 709.150024,694.345642 
	C709.580750,707.209595 710.181824,720.070679 710.961548,732.919189 
	C711.538025,742.419067 712.430298,751.899780 713.235168,762.062012 
	C702.220764,763.751465 691.643616,765.463440 681.035034,766.951477 
	C677.432678,767.456726 676.164795,766.445068 676.688538,761.964294 
	C677.591553,754.239380 676.929626,746.336609 677.008423,738.509338 
	C677.321289,707.426453 677.825317,676.344421 677.932678,645.260925 
	C677.986023,629.838257 677.482422,614.408020 676.952698,598.990723 
	C676.510681,586.125854 675.718689,573.271606 674.962036,560.419678 
	C674.732117,556.515320 674.103943,552.634460 673.584167,548.097107 
	C686.190186,546.834839 698.199219,545.632385 710.546204,544.396118 
	C709.708069,584.992310 706.564758,624.735535 708.744080,664.614990 
	C728.797607,661.305054 736.323120,641.893372 730.082397,610.424500 
	C739.972473,608.620178 749.854370,606.774109 759.756042,605.041626 
	C762.181091,604.617249 763.323669,605.559937 764.225647,608.277893 
	C767.367126,617.743774 767.026917,627.424377 766.966431,637.587036 
z"/>
<path fill="#FFFFFF" opacity="1.000000" stroke="none" 
	d="
M861.292175,758.604980 
	C860.445801,752.607361 859.812256,747.010742 859.048218,740.261536 
	C855.482300,745.451721 853.071045,749.952698 849.719910,753.587158 
	C845.561035,758.097717 840.696350,761.975830 836.000610,765.967285 
	C832.177490,769.216919 828.477539,767.281494 824.787781,765.361938 
	C804.965576,755.049988 793.291443,738.571899 787.981567,717.160217 
	C785.137146,705.690125 784.825195,694.047302 784.970154,682.325745 
	C785.108215,671.164368 785.259033,659.992249 784.925842,648.839111 
	C784.591187,637.635925 783.740723,626.445129 782.956238,615.260193 
	C782.709167,611.736816 783.966003,610.364746 787.513123,609.915405 
	C795.922241,608.850159 804.269775,607.305481 812.656555,606.050171 
	C814.245361,605.812378 815.900208,606.016052 818.000000,606.016052 
	C818.000000,608.189575 818.000000,609.979126 818.000000,611.768616 
	C818.000000,636.593933 817.648987,661.426331 818.152039,686.241394 
	C818.393860,698.168762 820.667114,709.969421 828.044922,719.977051 
	C830.094482,722.757202 832.679810,725.142456 835.913269,728.689636 
	C840.105103,723.603516 844.440369,719.082947 847.902832,713.971069 
	C853.255920,706.067871 855.441223,697.140808 855.047913,687.503723 
	C854.520569,674.583862 854.732544,661.623657 853.876709,648.730530 
	C853.140686,637.642151 851.334778,626.625732 850.039917,615.572937 
	C849.651428,612.257141 850.024475,610.271790 854.505676,609.816895 
	C864.858582,608.766174 875.113159,606.745911 886.000000,605.025269 
	C886.000000,606.779907 886.000000,608.385071 886.000000,609.990234 
	C886.000000,624.818787 886.122009,639.648682 885.957703,654.475403 
	C885.845825,664.573181 885.032410,674.667664 885.071228,684.761536 
	C885.127930,699.523071 885.388000,714.296143 886.097473,729.038574 
	C886.585571,739.181152 887.920715,749.286743 889.010925,759.394409 
	C889.332153,762.373108 887.999451,763.646118 885.317810,763.979553 
	C877.720337,764.924194 870.119812,765.844666 862.363525,766.793823 
	C862.076904,764.194031 861.790955,761.600098 861.292175,758.604980 
z"/>
<path fill="#FFFFFF" opacity="1.000000" stroke="none" 
	d="
M484.000000,715.000000 
	C483.558411,730.354980 483.842957,745.112122 489.588318,759.182251 
	C490.644836,761.769531 489.409332,762.724670 486.840302,763.033813 
	C476.455841,764.283142 466.086945,765.662842 455.717682,767.035156 
	C454.776184,767.159790 453.873199,767.575562 452.121063,768.109497 
	C451.591797,763.869202 451.079956,759.768799 450.360596,754.005920 
	C448.103241,759.340271 446.343872,763.497864 444.389618,768.115967 
	C426.446045,762.289795 410.044830,754.134460 401.696472,736.020447 
	C393.658508,718.579956 394.313171,701.130859 406.944275,685.830688 
	C413.785645,677.543640 423.599487,672.899780 433.562988,668.987610 
	C437.617096,667.395691 441.640717,665.726196 445.801941,664.041931 
	C439.733826,649.179871 427.906982,642.517334 412.952515,639.646973 
	C418.274261,628.039307 423.509338,616.620667 428.937225,604.781555 
	C440.280243,608.798767 450.862457,614.378723 459.965027,622.499817 
	C474.640259,635.592896 482.129425,652.197083 482.953094,671.724426 
	C483.554077,685.972351 483.668579,700.240723 484.000000,715.000000 
M434.957764,723.443420 
	C439.018280,727.584900 443.773224,730.269958 449.998047,731.083313 
	C449.998047,719.839111 450.058014,709.198120 449.932770,698.559448 
	C449.914185,696.979919 449.022461,695.410767 448.507935,693.750610 
	C430.945709,702.618774 426.721985,711.701538 434.957764,723.443420 
z"/>
<path fill="#FFFFFF" opacity="1.000000" stroke="none" 
	d="
M944.739868,601.229980 
	C941.612549,595.673401 938.744385,590.385437 935.607788,584.602600 
	C939.696350,582.837524 943.496338,581.197021 947.559265,579.443054 
	C944.085571,575.673340 948.087708,573.376892 949.868652,570.784973 
	C951.903381,567.823608 954.457092,565.192322 956.964050,562.589783 
	C959.225525,560.242065 961.301758,559.903870 963.113159,563.399963 
	C971.558716,579.700989 980.292358,595.855896 988.501770,612.273621 
	C990.238464,615.746948 990.100159,620.129150 991.036865,624.041992 
	C991.591492,626.358582 992.009277,629.032532 993.439514,630.757202 
	C998.964294,637.419006 1000.883911,645.510986 1002.899475,653.504822 
	C1005.120544,662.313965 1006.732178,671.276794 1008.613464,680.171814 
	C1008.715027,680.652283 1008.901367,681.117920 1008.971375,681.601624 
	C1010.189026,690.023071 1009.522766,690.367432 1000.932678,693.186646 
	C993.607300,695.590759 986.636169,699.074280 979.348877,702.147583 
	C976.318176,697.558838 974.690674,696.793518 981.902710,688.257996 
	C974.649658,686.402222 974.983337,679.507629 973.161560,674.436340 
	C966.748108,656.583191 961.289490,638.386536 954.848206,620.544189 
	C952.442017,613.879089 948.332092,607.829041 944.739868,601.229980 
z"/>
<path fill="#FFFFFF" opacity="1.000000" stroke="none" 
	d="
M550.282471,794.005859 
	C563.353577,793.666138 575.955933,793.512756 588.539307,792.941528 
	C599.730530,792.433472 610.900757,791.462402 622.381042,790.675049 
	C622.272217,792.268982 622.192078,793.441833 622.118286,794.522766 
	C634.302612,796.885254 646.141113,796.507812 657.890747,793.117859 
	C661.052795,792.205566 663.961609,793.273499 665.558899,796.213562 
	C668.155579,800.993164 670.427002,805.949402 673.008789,811.181946 
	C666.402588,813.152466 661.614929,811.114807 657.097778,808.482056 
	C654.204895,806.795959 652.117798,806.724854 649.910583,809.515930 
	C647.020813,813.170227 643.258423,813.310669 638.787354,812.509583 
	C628.503906,810.666931 618.105652,809.465698 607.754700,807.998474 
	C605.492432,807.677795 603.209045,807.449951 600.977173,806.980408 
	C589.662231,804.600037 579.080933,809.090942 568.171997,810.454773 
	C562.581726,811.153687 557.044617,812.277893 550.840271,813.317627 
	C551.315674,809.495789 551.686279,806.516479 552.110718,803.104492 
	C546.408813,803.444702 541.188965,803.617859 535.997253,804.096252 
	C526.530579,804.968628 517.083740,806.054626 507.622742,806.992188 
	C494.072266,808.335022 480.520996,809.673218 466.961426,810.919250 
	C458.444977,811.701904 449.859283,811.923157 441.399231,813.085083 
	C426.096191,815.186707 411.834442,810.140015 396.393402,807.631653 
	C400.052368,803.061829 403.348206,799.072388 406.497375,794.970276 
	C408.805634,791.963684 411.045929,791.738403 414.439667,793.647644 
	C418.620422,795.999817 423.159607,797.989685 427.790070,799.172058 
	C430.929474,799.973694 434.492035,799.092712 437.866394,799.004089 
	C450.960022,798.660339 464.058075,798.443909 477.146881,797.969360 
	C492.010040,797.430420 506.869537,796.752136 521.721863,795.968018 
	C531.091370,795.473328 540.444763,794.673462 550.282471,794.005859 
z"/>
<path fill="#FFFFFF" opacity="1.000000" stroke="none" 
	d="
M297.247681,1099.747559 
	C293.110138,1095.165039 288.462769,1092.391479 282.992004,1090.025024 
	C278.217896,1087.959839 274.413086,1083.199707 270.754578,1079.115479 
	C265.180115,1072.892334 259.413208,1066.468628 261.057556,1057.051147 
	C261.546051,1054.253540 262.299561,1051.338501 263.672607,1048.893433 
	C266.457733,1043.933838 269.676514,1039.208008 272.931152,1034.535278 
	C273.298157,1034.008423 275.473724,1033.961670 276.082550,1034.506226 
	C280.928711,1038.840454 285.939575,1043.070679 290.227661,1047.926392 
	C294.530151,1052.798584 298.451050,1058.115479 301.830109,1063.669067 
	C306.467621,1071.291016 312.292053,1076.752563 320.609467,1080.664307 
	C327.076843,1083.706177 332.227478,1089.612671 337.780304,1094.455811 
	C338.514008,1095.095703 338.569458,1097.087769 338.250549,1098.267334 
	C336.135437,1106.089844 333.832642,1113.861694 331.616760,1121.560181 
	C328.494690,1121.280640 325.428864,1121.163696 322.415253,1120.704346 
	C315.620819,1119.668823 311.194000,1114.947998 306.806335,1110.266968 
	C303.647461,1106.896973 300.597076,1103.425049 297.247681,1099.747559 
z"/>
<path fill="#FFFFFF" opacity="1.000000" stroke="none" 
	d="
M478.749176,1165.025879 
	C485.763153,1166.916504 492.357971,1168.771851 500.073822,1170.942627 
	C495.468658,1173.639160 491.818573,1175.936157 488.025024,1177.964966 
	C479.828613,1182.348145 471.607910,1186.693481 463.279449,1190.816650 
	C461.477875,1191.708740 458.930542,1192.390747 457.151520,1191.827637 
	C442.157135,1187.081787 427.288147,1181.941406 412.317749,1177.117432 
	C408.576935,1175.911987 407.923859,1173.645752 407.906616,1170.089600 
	C407.866547,1161.830078 407.260132,1153.574707 407.053284,1145.313477 
	C407.003723,1143.334839 407.618713,1141.339478 407.929535,1139.342407 
	C417.788300,1143.309570 427.136444,1147.015381 436.439697,1150.830566 
	C445.498505,1154.545532 454.398346,1158.683838 463.591492,1162.020508 
	C468.249969,1163.711304 473.401428,1164.043945 478.749176,1165.025879 
z"/>
<path fill="#FFFFFF" opacity="1.000000" stroke="none" 
	d="
M297.000000,538.193359 
	C297.000000,536.287170 297.000000,534.831116 297.000000,532.051880 
	C299.716644,534.420288 301.600983,536.063110 303.478851,537.700317 
	C307.683990,533.027954 321.876984,534.014465 329.810944,539.505798 
	C329.957367,538.037598 330.096649,536.641052 330.260284,535.000000 
	C339.479492,535.000000 348.459137,535.076721 357.436096,534.956055 
	C360.359924,534.916748 363.325745,533.884460 366.183197,534.177185 
	C369.077332,534.473572 371.861084,535.847229 375.417236,536.979675 
	C376.846863,535.617126 379.208618,533.366150 382.423645,530.301941 
	C382.423645,537.401428 382.423645,543.397583 382.423645,549.915344 
	C354.628754,551.268555 326.547211,552.635681 298.248993,554.013367 
	C297.876801,549.433228 297.438416,544.038391 297.000000,538.193359 
z"/>
<path fill="#FFFFFF" opacity="1.000000" stroke="none" 
	d="
M880.054993,821.890991 
	C878.278381,815.416931 876.543213,809.365601 874.808044,803.314331 
	C874.423767,803.334106 874.039551,803.353882 873.655273,803.373718 
	C873.655273,809.949951 873.655273,816.526184 873.655273,822.748901 
	C867.032166,825.782837 867.012085,825.782837 867.004272,819.496704 
	C866.989441,807.527893 867.000000,795.559143 867.000000,783.683350 
	C874.348083,781.029968 874.832825,781.266235 877.191284,788.566223 
	C878.566101,792.821716 879.911804,797.086487 881.899292,801.261353 
	C881.899292,795.413879 881.899292,789.566406 881.899292,783.250183 
	C883.919861,783.151917 885.645203,783.067993 887.692871,782.968384 
	C887.692871,796.626282 887.692871,810.019287 887.692871,824.592712 
	C884.976685,823.777893 882.536560,823.045898 880.054993,821.890991 
z"/>
<path fill="#FFFFFF" opacity="1.000000" stroke="none" 
	d="
M735.000000,793.032593 
	C735.000000,789.566589 735.000000,786.594299 735.000000,783.688904 
	C743.147827,782.054138 743.086426,782.069824 745.075562,789.867981 
	C745.895996,793.084106 747.044128,796.216553 748.863708,799.253235 
	C748.863708,794.079590 748.863708,788.906006 748.863708,783.253723 
	C750.906128,783.151917 752.631653,783.065918 754.686157,782.963501 
	C754.686157,796.602905 754.686157,809.990173 754.686157,823.689453 
	C752.643127,823.689453 750.576904,823.689453 748.248474,823.689453 
	C746.091919,816.051758 743.914429,808.340027 741.737000,800.628296 
	C741.522766,800.658447 741.308594,800.688538 741.094360,800.718689 
	C741.094360,808.234070 741.094360,815.749512 741.094360,823.747986 
	C739.092957,823.847900 737.367798,823.934021 735.000000,824.052246 
	C735.000000,813.703247 735.000000,803.614746 735.000000,793.032593 
z"/>
<path fill="#FFFFFF" opacity="1.000000" stroke="none" 
	d="
M773.887451,824.076050 
	C769.234619,824.547424 765.011902,824.963135 760.372070,825.419800 
	C760.372070,811.126526 760.372070,797.415588 760.372070,783.061157 
	C765.122437,783.061157 770.109192,782.535950 774.934204,783.195007 
	C780.873047,784.006165 780.564148,789.852966 780.751404,793.728088 
	C781.164246,802.273682 780.605286,810.910156 779.731567,819.436707 
	C779.557922,821.131714 776.204651,822.500977 773.887451,824.076050 
M767.000000,792.760071 
	C767.000427,799.256104 766.884705,805.755066 767.048096,812.247009 
	C767.135986,815.741455 767.630981,819.305847 772.489807,817.616089 
	C773.019653,813.175415 773.683960,809.115784 773.939209,805.030579 
	C774.177551,801.214905 774.408875,797.300598 773.785095,793.573303 
	C773.500610,791.872925 771.151367,790.518188 769.738586,789.006653 
	C768.826111,789.947144 767.913574,790.887573 767.000000,792.760071 
z"/>
<path fill="#FFFFFF" opacity="1.000000" stroke="none" 
	d="
M849.291626,824.970215 
	C844.455017,823.271851 842.792664,820.073853 842.935791,815.357300 
	C843.172302,807.564392 842.974304,799.758850 843.008362,791.958923 
	C843.034180,786.040588 846.609070,782.183716 852.142822,782.000366 
	C858.706848,781.782837 862.726929,784.972839 862.929321,791.271118 
	C863.201111,799.726379 863.211121,808.204041 862.929321,816.658630 
	C862.704834,823.394409 857.012268,826.781677 849.291626,824.970215 
M850.000000,805.489258 
	C850.000122,808.645142 849.746399,811.831055 850.114563,814.943420 
	C850.282043,816.359741 851.582458,818.671387 852.537964,818.760376 
	C854.844910,818.974976 856.157471,817.536743 856.071655,814.724854 
	C855.854004,807.589233 856.151245,800.436584 855.873901,793.305115 
	C855.817078,791.844177 854.152649,790.445740 853.229126,789.018494 
	C852.153625,790.524414 850.360901,791.936401 850.148926,793.555420 
	C849.678589,797.148132 850.000916,800.844666 850.000000,805.489258 
z"/>
<path fill="#FFFFFF" opacity="1.000000" stroke="none" 
	d="
M787.286499,794.396484 
	C787.992310,791.460388 788.873901,788.916382 788.881348,786.369812 
	C788.889160,783.685059 790.143921,781.680786 792.319580,782.237427 
	C795.021240,782.928528 799.249084,781.560547 799.994812,786.371399 
	C801.587769,796.647888 803.327942,806.901550 804.986816,817.167908 
	C805.321960,819.242126 805.564453,821.331299 805.889832,823.706909 
	C803.765869,823.706909 801.683044,823.706909 799.411194,823.706909 
	C798.830505,821.980774 798.224243,820.178467 797.535828,818.132141 
	C794.089233,818.012268 790.457581,816.797913 789.142883,822.137573 
	C788.849365,823.329529 785.714478,823.821899 782.639648,825.192871 
	C784.277283,813.973389 785.677551,804.380371 787.286499,794.396484 
M795.627380,801.140198 
	C795.279114,799.586426 794.930908,798.032593 794.582703,796.478760 
	C794.257507,796.468384 793.932312,796.458008 793.607117,796.447632 
	C792.822876,801.140442 792.038635,805.833252 791.240662,810.608032 
	C793.160583,810.608032 795.007324,810.608032 796.486267,810.608032 
	C796.289978,807.472290 796.117004,804.709045 795.627380,801.140198 
z"/>
<path fill="#FFFFFF" opacity="1.000000" stroke="none" 
	d="
M730.000000,809.943848 
	C730.000000,811.930969 729.925232,813.432312 730.011902,814.924377 
	C730.654541,825.987915 722.069885,826.841125 714.555969,823.792603 
	C712.223999,822.846375 710.390076,818.055298 710.208008,814.915466 
	C709.650330,805.300110 709.951294,795.631226 710.068298,785.984924 
	C710.084534,784.643188 710.944153,783.311707 711.390015,782.041809 
	C713.471802,782.590942 715.142456,783.031555 717.000000,783.521545 
	C717.000000,790.282471 716.878723,796.925903 717.043640,803.562317 
	C717.149475,807.820679 717.612488,812.075500 718.069031,816.315369 
	C718.162048,817.179810 718.849670,818.573425 719.424255,818.660583 
	C720.404175,818.809204 722.104492,818.410461 722.448181,817.718323 
	C723.286804,816.029663 723.907104,814.046997 723.935059,812.172607 
	C724.076233,802.704346 724.000000,793.232788 724.000000,783.250610 
	C725.886963,783.152771 727.613098,783.063232 730.000000,782.939453 
	C730.000000,791.939697 730.000000,800.696777 730.000000,809.943848 
z"/>
<path fill="#FFFFFF" opacity="1.000000" stroke="none" 
	d="
M814.692993,782.142334 
	C824.892273,780.549622 829.964050,787.280518 827.491882,796.789368 
	C825.945190,796.789368 824.337585,796.789368 822.553467,796.789368 
	C820.970642,793.719360 822.489746,788.274048 815.662476,788.209229 
	C815.442322,796.886108 815.251099,805.575439 814.988159,814.262695 
	C814.867065,818.262634 817.679871,818.519470 820.501526,818.978638 
	C821.105347,815.643127 821.679810,812.470093 822.276245,809.175537 
	C824.138733,809.175537 825.759399,809.175537 828.000000,809.175537 
	C828.000000,811.149719 828.016907,813.087036 827.996948,815.023865 
	C827.927734,821.748047 825.446472,824.793274 819.888000,824.999634 
	C812.372803,825.278625 808.195923,822.421326 808.113586,815.871521 
	C808.001770,806.975403 808.819763,798.071289 808.916138,789.167114 
	C808.958984,785.214111 811.671326,783.902405 814.692993,782.142334 
z"/>
<path fill="#FFFFFF" opacity="1.000000" stroke="none" 
	d="
M690.000000,790.078247 
	C690.000000,787.610107 690.000000,785.632080 690.000000,783.328003 
	C695.657898,783.328003 701.049072,783.328003 706.721924,783.328003 
	C706.721924,785.080872 706.721924,786.803589 706.721924,788.846924 
	C703.640686,788.846924 700.690186,788.846924 697.369629,788.846924 
	C697.369629,792.882446 697.369629,796.610657 697.369629,800.758606 
	C700.271790,801.716675 706.188538,799.348572 704.759460,806.702271 
	C702.468140,807.256165 699.984192,807.856567 697.003723,808.577087 
	C697.003723,813.400574 697.003723,818.492920 697.003723,823.781921 
	C694.590942,823.781921 692.644043,823.781921 690.000000,823.781921 
	C690.000000,812.755432 690.000000,801.661865 690.000000,790.078247 
z"/>
<path fill="#FFFFFF" opacity="1.000000" stroke="none" 
	d="
M839.000000,815.937256 
	C839.000000,818.728455 839.000000,821.029785 839.000000,823.664062 
	C836.693604,823.664062 834.645630,823.664062 832.295898,823.664062 
	C832.295898,810.367065 832.295898,797.017029 832.295898,783.332886 
	C834.311340,783.332886 836.359314,783.332886 839.000000,783.332886 
	C839.000000,794.004333 839.000000,804.725891 839.000000,815.937256 
z"/>
<path fill="#FFFFFF" opacity="1.000000" stroke="none" 
	d="
M855.611694,778.748596 
	C853.730164,779.633911 852.164368,780.326355 850.423218,781.096252 
	C851.519043,774.177795 851.883667,773.872559 858.991089,774.190186 
	C857.837769,775.833557 856.882629,777.194641 855.611694,778.748596 
z"/>
</svg>